<svg width="512" height="512" viewBox="0 0 512 512" fill="none" xmlns="http://www.w3.org/2000/svg">
<rect width="512" height="512" fill="#666850"/>
<path d="M273.317 198H238.974C236.378 198 234.274 200.104 234.274 202.7V237.044C234.274 239.64 236.378 241.744 238.974 241.744H273.317C275.913 241.744 278.018 239.64 278.018 237.044V202.7C278.018 200.104 275.913 198 273.317 198Z" fill="#ECEBE6"/>
<path d="M244.295 267.955H212.422L192.043 247.575V215.668C192.044 214.447 191.573 213.273 190.73 212.391C189.886 211.508 188.734 210.986 187.514 210.933H150.7C149.457 210.942 148.266 211.44 147.387 212.32C146.507 213.199 146.009 214.39 146 215.633V252.275C146.009 253.519 146.507 254.71 147.387 255.589C148.266 256.469 149.457 256.967 150.7 256.976H182.573L203.159 277.355V309.228C203.167 310.431 203.639 311.584 204.476 312.447C205.314 313.31 206.452 313.816 207.653 313.86H244.295C245.542 313.86 246.737 313.365 247.619 312.483C248.5 311.602 248.996 310.406 248.996 309.16V272.689C249 272.069 248.882 271.454 248.648 270.88C248.414 270.306 248.068 269.784 247.631 269.343C247.194 268.903 246.675 268.554 246.102 268.316C245.529 268.077 244.915 267.955 244.295 267.955Z" fill="#ECEBE6"/>
<path d="M361.6 210.936H324.958C323.718 210.945 322.531 211.444 321.657 212.325C320.783 213.205 320.292 214.396 320.292 215.636V247.544L299.707 267.923H267.834C266.605 267.968 265.443 268.492 264.597 269.384C263.75 270.275 263.286 271.463 263.305 272.692V309.3C263.305 310.547 263.8 311.742 264.682 312.624C265.563 313.505 266.759 314 268.005 314H304.647C305.894 314 307.09 313.505 307.971 312.624C308.853 311.742 309.348 310.547 309.348 309.3V277.427L329.727 257.047H361.6C362.847 257.047 364.043 256.552 364.924 255.671C365.805 254.789 366.301 253.594 366.301 252.347V215.671C366.305 215.051 366.187 214.436 365.953 213.861C365.719 213.287 365.373 212.765 364.936 212.325C364.499 211.885 363.98 211.535 363.407 211.297C362.835 211.059 362.221 210.936 361.6 210.936Z" fill="#ECEBE6"/>
</svg>
