<svg width="72" height="35" viewBox="0 0 72 35" fill="none" xmlns="http://www.w3.org/2000/svg">
<path d="M41.3707 26V13.6594H44.4253V26H41.3707ZM41.1996 11.3379V8.35664H44.5963V11.3379H41.1996ZM48.5732 26V16.8118C48.5732 16.2904 48.5569 15.761 48.5244 15.2234C48.5081 14.6858 48.4673 14.1644 48.4022 13.6594H51.359L51.7011 17.0317H51.2124C51.3753 16.2171 51.6441 15.5411 52.0188 15.0034C52.4098 14.4658 52.8823 14.0667 53.4362 13.806C53.9901 13.5454 54.5928 13.4151 55.2445 13.4151C55.5377 13.4151 55.7739 13.4313 55.9531 13.4639C56.1324 13.4802 56.3116 13.5209 56.4908 13.5861L56.4663 16.2742C56.1568 16.1438 55.888 16.0624 55.6599 16.0298C55.4481 15.9972 55.1793 15.9809 54.8535 15.9809C54.153 15.9809 53.5583 16.1275 53.0696 16.4208C52.5972 16.714 52.2388 17.1213 51.9944 17.6426C51.7663 18.1639 51.6523 18.7586 51.6523 19.4265V26H48.5732ZM59.0463 26V8.01452H62.1009V18.9133H62.1498L67.1593 13.6594H70.8493L64.6179 20.184L64.6423 18.9622L71.2891 26H67.5014L62.1498 20.4773H62.1009V26H59.0463Z" fill="#2C2A27"/>
<path d="M21.2606 6.2583H15.5256C15.0921 6.2583 14.7407 6.60972 14.7407 7.04321V12.7782C14.7407 13.2117 15.0921 13.5631 15.5256 13.5631H21.2606C21.6941 13.5631 22.0455 13.2117 22.0455 12.7782V7.04321C22.0455 6.60972 21.6941 6.2583 21.2606 6.2583Z" fill="#2C2A27"/>
<path d="M16.4143 17.94H11.0918L7.68866 14.5368V9.20861C7.68886 9.00474 7.61029 8.80867 7.46938 8.66135C7.32846 8.51403 7.13608 8.42683 6.9324 8.41797H0.784906C0.577198 8.41947 0.378424 8.50264 0.231549 8.64951C0.084674 8.79639 0.00149975 8.99517 0 9.20287V15.3217C0.00149975 15.5294 0.084674 15.7282 0.231549 15.8751C0.378424 16.022 0.577198 16.1051 0.784906 16.1066H6.10739L9.54494 19.5098V24.8323C9.54628 25.0331 9.62509 25.2256 9.76492 25.3697C9.90475 25.5138 10.0948 25.5984 10.2955 25.6057H16.4143C16.6225 25.6057 16.8221 25.523 16.9693 25.3758C17.1165 25.2286 17.1992 25.029 17.1992 24.8208V18.7306C17.2 18.6271 17.1802 18.5244 17.1411 18.4285C17.102 18.3326 17.0443 18.2454 16.9714 18.1719C16.8984 18.0984 16.8116 18.0401 16.716 18.0003C16.6204 17.9605 16.5179 17.94 16.4143 17.94Z" fill="#2C2A27"/>
<path d="M36.003 8.41846H29.8842C29.677 8.41997 29.4788 8.50333 29.3329 8.65037C29.1869 8.7974 29.105 8.99618 29.105 9.20336V14.5316L25.6675 17.9347H20.345C20.1398 17.9422 19.9457 18.0298 19.8044 18.1786C19.663 18.3275 19.5856 18.5258 19.5887 18.7311V24.8442C19.5887 25.0524 19.6714 25.2521 19.8186 25.3992C19.9658 25.5464 20.1655 25.6292 20.3736 25.6292H26.4925C26.7006 25.6292 26.9003 25.5464 27.0475 25.3992C27.1947 25.2521 27.2774 25.0524 27.2774 24.8442V19.5218L30.6806 16.1186H36.003C36.2112 16.1186 36.4109 16.0359 36.5581 15.8887C36.7053 15.7415 36.7879 15.5418 36.7879 15.3337V9.2091C36.7887 9.10554 36.769 9.00286 36.7299 8.90697C36.6908 8.81108 36.6331 8.72386 36.5601 8.65037C36.4871 8.57688 36.4003 8.51855 36.3047 8.47874C36.2091 8.43894 36.1066 8.41845 36.003 8.41846Z" fill="#2C2A27"/>
</svg>
