<svg width="84" height="41" viewBox="0 0 84 41" fill="none" xmlns="http://www.w3.org/2000/svg">
<path d="M48.4898 31V16.3998H52.1037V31H48.4898ZM48.2874 13.6533V10.1261H52.3061V13.6533H48.2874ZM57.0112 31V20.1294C57.0112 19.5126 56.9919 18.8862 56.9534 18.2502C56.9341 17.6141 56.8859 16.9973 56.8088 16.3998H60.307L60.7118 20.3896H60.1336C60.3263 19.4259 60.6443 18.626 61.0877 17.99C61.5502 17.3539 62.1092 16.8817 62.7645 16.5733C63.4198 16.2649 64.133 16.1107 64.9039 16.1107C65.2509 16.1107 65.5303 16.13 65.7424 16.1686C65.9544 16.1878 66.1664 16.236 66.3784 16.3131L66.3495 19.4933C65.9833 19.3392 65.6653 19.2428 65.3954 19.2042C65.1449 19.1657 64.8268 19.1464 64.4413 19.1464C63.6126 19.1464 62.9091 19.3199 62.3308 19.6668C61.7719 20.0137 61.3479 20.4956 61.0587 21.1124C60.7889 21.7291 60.654 22.4327 60.654 23.2229V31H57.0112ZM69.4019 31V9.72136H73.0158V22.6158H73.0736L79.0004 16.3998H83.366L75.9936 24.1191L76.0225 22.6736L83.8864 31H79.4052L73.0736 24.4661H73.0158V31H69.4019Z" fill="white"/>
<path d="M25.1534 7.4043H18.3683C17.8555 7.4043 17.4397 7.82006 17.4397 8.33292V15.118C17.4397 15.6309 17.8555 16.0466 18.3683 16.0466H25.1534C25.6663 16.0466 26.082 15.6309 26.082 15.118V8.33292C26.082 7.82006 25.6663 7.4043 25.1534 7.4043Z" fill="url(#paint0_linear_430_44)"/>
<path d="M19.4198 21.225H13.1228L9.09647 17.1987V10.8949C9.09669 10.6537 9.00375 10.4217 8.83702 10.2474C8.6703 10.0731 8.4427 9.96996 8.20173 9.95947H0.928623C0.682884 9.96125 0.447714 10.0596 0.273946 10.2334C0.100178 10.4072 0.00177436 10.6424 0 10.8881V18.1273C0.00177436 18.373 0.100178 18.6082 0.273946 18.782C0.447714 18.9558 0.682884 19.0542 0.928623 19.0559H7.22566L11.2926 23.0822V29.3793C11.2942 29.6168 11.3875 29.8446 11.5529 30.0151C11.7183 30.1856 11.9432 30.2856 12.1806 30.2943H19.4198C19.6661 30.2943 19.9023 30.1965 20.0764 30.0224C20.2506 29.8482 20.3484 29.612 20.3484 29.3657V22.1604C20.3493 22.0379 20.326 21.9164 20.2797 21.8029C20.2334 21.6895 20.1652 21.5863 20.0788 21.4994C19.9925 21.4124 19.8899 21.3434 19.7767 21.2963C19.6636 21.2492 19.5423 21.225 19.4198 21.225Z" fill="url(#paint1_linear_430_44)"/>
<path d="M42.5952 9.95996H35.356C35.1109 9.96175 34.8764 10.0604 34.7037 10.2343C34.531 10.4083 34.4341 10.6435 34.4341 10.8886V17.1924L30.3672 21.2187H24.0701C23.8274 21.2275 23.5978 21.3311 23.4305 21.5073C23.2633 21.6834 23.1717 21.918 23.1754 22.1609V29.3933C23.1754 29.6396 23.2732 29.8758 23.4474 30.05C23.6215 30.2241 23.8577 30.322 24.104 30.322H31.3432C31.5895 30.322 31.8257 30.2241 31.9999 30.05C32.174 29.8758 32.2719 29.6396 32.2719 29.3933V23.0963L36.2982 19.07H42.5952C42.8415 19.07 43.0777 18.9721 43.2518 18.798C43.426 18.6238 43.5238 18.3876 43.5238 18.1414V10.8954C43.5247 10.7729 43.5014 10.6514 43.4551 10.5379C43.4088 10.4245 43.3406 10.3213 43.2543 10.2343C43.1679 10.1474 43.0653 10.0784 42.9522 10.0313C42.839 9.98419 42.7177 9.95996 42.5952 9.95996Z" fill="url(#paint2_linear_430_44)"/>
<defs>
<linearGradient id="paint0_linear_430_44" x1="578.326" y1="2738.55" x2="837.769" y2="2738.55" gradientUnits="userSpaceOnUse">
<stop stop-color="white"/>
<stop offset="1" stop-color="#2CC3E8"/>
</linearGradient>
<linearGradient id="paint1_linear_430_44" x1="1320.61" y1="6436.19" x2="1931.48" y2="6436.19" gradientUnits="userSpaceOnUse">
<stop stop-color="white"/>
<stop offset="1" stop-color="#2CC3E8"/>
</linearGradient>
<linearGradient id="paint2_linear_430_44" x1="1343.8" y1="6444.76" x2="1954.66" y2="6444.76" gradientUnits="userSpaceOnUse">
<stop stop-color="white"/>
<stop offset="1" stop-color="#2CC3E8"/>
</linearGradient>
</defs>
</svg>
