<svg width="36" height="36" viewBox="0 0 36 36" fill="none" xmlns="http://www.w3.org/2000/svg">
<rect x="0.22229" y="0.333374" width="35.5556" height="35.5556" rx="17.7778" fill="#ABA195"/>
<path fill-rule="evenodd" clip-rule="evenodd" d="M17.9999 13.3707C16.843 13.3707 15.7766 13.4661 14.9206 13.5792C14.1503 13.6809 13.5694 14.2618 13.4676 15.0322C13.3546 15.8882 13.2592 16.9546 13.2592 18.1115C13.2592 19.2684 13.3546 20.3348 13.4676 21.1908C13.5694 21.9611 14.1503 22.542 14.9206 22.6438C15.7766 22.7568 16.843 22.8522 17.9999 22.8522C19.1568 22.8522 20.2232 22.7568 21.0792 22.6438C21.8495 22.542 22.4304 21.9611 22.5322 21.1908C22.6452 20.3348 22.7406 19.2684 22.7406 18.1115C22.7406 16.9546 22.6452 15.8882 22.5322 15.0322C22.4304 14.2618 21.8495 13.6809 21.0792 13.5792C20.2232 13.4661 19.1568 13.3707 17.9999 13.3707ZM14.7654 12.4042C13.4636 12.5761 12.4646 13.5752 12.2926 14.877C12.1744 15.772 12.074 16.8915 12.074 18.1115C12.074 19.3315 12.1744 20.451 12.2926 21.3459C12.4646 22.6477 13.4636 23.6468 14.7654 23.8187C15.6604 23.9369 16.7799 24.0374 17.9999 24.0374C19.2199 24.0374 20.3394 23.9369 21.2344 23.8187C22.5362 23.6468 23.5352 22.6477 23.7072 21.3459C23.8254 20.451 23.9258 19.3315 23.9258 18.1115C23.9258 16.8915 23.8254 15.772 23.7072 14.877C23.5352 13.5752 22.5362 12.5761 21.2344 12.4042C20.3394 12.286 19.2199 12.1855 17.9999 12.1855C16.7799 12.1855 15.6604 12.286 14.7654 12.4042Z" fill="#FCFCFD"/>
<path d="M16.2222 17.5189C16.8767 17.5189 17.4073 16.9883 17.4073 16.3337C17.4073 15.6792 16.8767 15.1486 16.2222 15.1486C15.5676 15.1486 15.037 15.6792 15.037 16.3337C15.037 16.9883 15.5676 17.5189 16.2222 17.5189Z" fill="#FCFCFD"/>
<path d="M21.6274 18.5307L22.6907 19.594C22.654 20.1487 22.6004 20.6635 22.5414 21.1207L20.7893 19.3687C20.5579 19.1373 20.1827 19.1373 19.9513 19.3687L18.6644 20.6556C17.9702 21.3498 16.8445 21.3498 16.1503 20.6556L16.0486 20.5539C15.8172 20.3225 15.442 20.3225 15.2105 20.5539L13.7829 21.9815C13.6176 21.7573 13.5069 21.4881 13.4676 21.1908C13.4462 21.0287 13.4254 20.8589 13.4058 20.6825L14.3725 19.7158C15.0668 19.0216 16.1924 19.0216 16.8866 19.7158L16.9883 19.8175C17.2197 20.0489 17.5949 20.0489 17.8264 19.8175L19.1132 18.5307C19.8075 17.8364 20.9331 17.8364 21.6274 18.5307Z" fill="#FCFCFD"/>
</svg>
