<svg width="36" height="36" viewBox="0 0 36 36" fill="none" xmlns="http://www.w3.org/2000/svg">
<rect x="0.22229" y="0.333374" width="35.5556" height="35.5556" rx="17.7778" fill="#666850"/>
<path fill-rule="evenodd" clip-rule="evenodd" d="M17.9999 18.7036C15.7089 18.7036 13.8518 20.5608 13.8518 22.8518V24.037C13.8518 24.3642 13.5864 24.6295 13.2592 24.6295C12.9319 24.6295 12.6666 24.3642 12.6666 24.037V22.8518C12.6666 19.9062 15.0544 17.5184 17.9999 17.5184C20.9454 17.5184 23.3332 19.9062 23.3332 22.8518V24.037C23.3332 24.3642 23.0679 24.6295 22.7406 24.6295C22.4134 24.6295 22.148 24.3642 22.148 24.037V22.8518C22.148 20.5608 20.2909 18.7036 17.9999 18.7036Z" fill="#FCFCFD"/>
<path fill-rule="evenodd" clip-rule="evenodd" d="M17.9999 17.5185C19.309 17.5185 20.3703 16.4572 20.3703 15.1481C20.3703 13.839 19.309 12.7777 17.9999 12.7777C16.6908 12.7777 15.6295 13.839 15.6295 15.1481C15.6295 16.4572 16.6908 17.5185 17.9999 17.5185ZM17.9999 18.7036C19.9636 18.7036 21.5554 17.1118 21.5554 15.1481C21.5554 13.1844 19.9636 11.5925 17.9999 11.5925C16.0362 11.5925 14.4443 13.1844 14.4443 15.1481C14.4443 17.1118 16.0362 18.7036 17.9999 18.7036Z" fill="#FCFCFD"/>
</svg>
