<svg width="22" height="10" viewBox="0 0 22 10" fill="none" xmlns="http://www.w3.org/2000/svg">
<path fill-rule="evenodd" clip-rule="evenodd" d="M22 4.82425V5.20312C19.8522 5.66957 18.2929 7.84191 17.6519 9.99998C17.6515 10.0014 17.3876 9.91118 17.3798 9.90853C17.3719 9.90587 17.3885 9.90987 17.389 9.90823C17.8747 8.25732 18.4082 6.42857 19.7551 5.2381C16.3174 5.31835 13.9616 5.44599 11.1196 5.46045L11.1189 5.46045C7.81789 5.47724 4.51954 5.49403 0.292564 5.61373L0 5.62201V4.38272L19.7551 4.7619C18.4082 3.57143 17.8787 1.76085 17.389 0.091782C17.389 0.091782 17.1078 0.184079 17.3797 0.0920831C17.6517 8.67744e-05 17.6516 0 17.6516 0C18.287 2.16232 19.8518 4.35771 22 4.82425Z" fill="white"/>
<path fill-rule="evenodd" clip-rule="evenodd" d="M22 4.82425V5.20312C19.8522 5.66957 18.2929 7.84191 17.6519 9.99998C17.6515 10.0014 17.3876 9.91118 17.3798 9.90853C17.3719 9.90587 17.3885 9.90987 17.389 9.90823C17.8747 8.25732 18.4082 6.42857 19.7551 5.2381C16.3174 5.31835 13.9616 5.44599 11.1196 5.46045L11.1189 5.46045C7.81789 5.47724 4.51954 5.49403 0.292564 5.61373L0 5.62201V4.38272L19.7551 4.7619C18.4082 3.57143 17.8787 1.76085 17.389 0.091782C17.389 0.091782 17.1078 0.184079 17.3797 0.0920831C17.6517 8.67744e-05 17.6516 0 17.6516 0C18.287 2.16232 19.8518 4.35771 22 4.82425Z" fill="url(#paint0_linear_589_6)"/>
<defs>
<linearGradient id="paint0_linear_589_6" x1="11" y1="0" x2="11" y2="10" gradientUnits="userSpaceOnUse">
<stop stop-color="white"/>
<stop offset="1" stop-color="white" stop-opacity="0"/>
</linearGradient>
</defs>
</svg>
