<svg width="36" height="36" viewBox="0 0 36 36" fill="none" xmlns="http://www.w3.org/2000/svg">
<rect x="0.22229" y="0.333374" width="35.5556" height="35.5556" rx="17.7778" fill="#54514B"/>
<path fill-rule="evenodd" clip-rule="evenodd" d="M12.6666 13.9629C12.6666 12.6538 13.7278 11.5925 15.0369 11.5925H19.981C20.6097 11.5925 21.2126 11.8423 21.6571 12.2868L22.639 13.2686C23.0835 13.7132 23.3332 14.3161 23.3332 14.9447V22.2592C23.3332 23.5683 22.272 24.6296 20.9629 24.6296H15.0369C13.7278 24.6296 12.6666 23.5683 12.6666 22.2592V13.9629ZM22.148 15.7407V22.2592C22.148 22.9138 21.6174 23.4444 20.9629 23.4444H15.0369C14.3824 23.4444 13.8518 22.9138 13.8518 22.2592V13.9629C13.8518 13.3083 14.3824 12.7777 15.0369 12.7777H19.1851V13.9629C19.1851 14.9447 19.981 15.7407 20.9629 15.7407H22.148ZM22.0823 14.5555C22.0241 14.3881 21.9286 14.2344 21.8009 14.1067L20.8191 13.1248C20.6914 12.9972 20.5376 12.9017 20.3703 12.8435V13.9629C20.3703 14.2902 20.6356 14.5555 20.9629 14.5555H22.0823Z" fill="#FCFCFD"/>
</svg>
