<svg width="36" height="36" viewBox="0 0 36 36" fill="none" xmlns="http://www.w3.org/2000/svg">
<rect x="0.222282" y="0.333374" width="35.5556" height="35.5556" rx="17.7778" fill="#8E6749"/>
<g clip-path="url(#clip0_24_488)">
<path fill-rule="evenodd" clip-rule="evenodd" d="M17.9999 18.7041C15.7089 18.7041 13.8518 20.5613 13.8518 22.8523V24.0374C13.8518 24.3647 13.5864 24.63 13.2592 24.63C12.9319 24.63 12.6666 24.3647 12.6666 24.0374V22.8523C12.6666 19.9067 15.0544 17.5189 17.9999 17.5189C20.9454 17.5189 23.3332 19.9067 23.3332 22.8523V24.0374C23.3332 24.3647 23.0679 24.63 22.7406 24.63C22.4134 24.63 22.1481 24.3647 22.1481 24.0374V22.8523C22.1481 20.5613 20.2909 18.7041 17.9999 18.7041Z" fill="#FCFCFD"/>
<path fill-rule="evenodd" clip-rule="evenodd" d="M17.9999 17.5189C19.309 17.5189 20.3703 16.4577 20.3703 15.1486C20.3703 13.8395 19.309 12.7782 17.9999 12.7782C16.6908 12.7782 15.6295 13.8395 15.6295 15.1486C15.6295 16.4577 16.6908 17.5189 17.9999 17.5189ZM17.9999 18.7041C19.9636 18.7041 21.5555 17.1123 21.5555 15.1486C21.5555 13.1849 19.9636 11.593 17.9999 11.593C16.0362 11.593 14.4444 13.1849 14.4444 15.1486C14.4444 17.1123 16.0362 18.7041 17.9999 18.7041Z" fill="#FCFCFD"/>
</g>
<defs>
<clipPath id="clip0_24_488">
<rect width="14.2222" height="14.2222" fill="white" transform="translate(10.8888 11.0004)"/>
</clipPath>
</defs>
</svg>
